# xmcd CD database file
#
# Track frame offsets:
#	150
#	12191
#	26372
#	40491
#	52111
#	65187
#	79613
#	96681
#	105442
#	115794
#	126678
#	138658
#	147765
#	160502
#
# Disc length: 2281 seconds
#
# Revision: 0
# Processed by: cddbd v1.5.2PL0 Copyright (c) Steve Scherf et al.
# Submitted via: CDex 1.70beta2
#
DISCID=c708e70e
DTITLE=Alice Babs and Jan Johansson and Georg Riedel's Orchestra - Illusion (Never Previously Released Rec Fr 1966)
DYEAR=1967
DGENRE=Jazz
TTITLE0=Song For The Dreamer
TTITLE1=Om Jag Än Förstått
TTITLE2=Illusion
TTITLE3=Om Du Så Vill
TTITLE4=Mer Än Vänskap
TTITLE5=Någon Och Ingen
TTITLE6=Je Vous Aime
TTITLE7=I Molom Vid Människodalen
TTITLE8=Jag Ville Så Gärna Veta
TTITLE9=Främmad Fågel
TTITLE10=En Snäcka I Sanden
TTITLE11=Där Bor En Konung
TTITLE12=Sjöng Bäcken
TTITLE13=Forgotten Wind
EXTD=YEAR: 1967
EXTT0=
EXTT1=
EXTT2=
EXTT3=
EXTT4=
EXTT5=
EXTT6=
EXTT7=
EXTT8=
EXTT9=
EXTT10=
EXTT11=
EXTT12=
EXTT13=
PLAYORDER=
